<?xml version="1.0" encoding="UTF-8"?>
<svg width="72px" height="75px" viewBox="0 0 72 75" version="1.1" xmlns="http://www.w3.org/2000/svg" xmlns:xlink="http://www.w3.org/1999/xlink">
    <title>小鸡</title>
    <g id="页面-1" stroke="none" stroke-width="1" fill="none" fill-rule="evenodd">
        <g id="计数" transform="translate(-112.000000, -387.000000)" fill-rule="nonzero">
            <g id="编组-2备份" transform="translate(67.645488, 369.743717)">
                <g id="小鸡" transform="translate(45.000000, 18.000000)">
                    <path d="M39.2884353,19.1965296 C40.3284894,19.1965296 41.3763052,19.2495858 42.4008361,19.3632776 C49.9994406,20.1742793 56.2242423,23.4789215 60.3999821,28.9133906 C64.8008082,34.6510378 66.5394062,42.2987076 65.1656033,49.9160596 C64.6222915,52.9478415 63.5511909,55.6916042 61.9911097,58.0791324 C60.5008829,60.3681277 58.5449602,62.338786 56.1776727,63.9532098 C51.3965283,67.2199548 45.0397795,68.940491 37.80597,68.940491 C36.2070808,68.940491 34.5538604,68.857117 32.8928784,68.6827896 L7.36498231,65.2113993 C8.58355321,61.573261 9.28985864,56.1236331 10.5627607,43.8524959 C10.9353174,40.305311 11.9831332,36.9476126 13.6984464,33.8551951 C15.328382,30.9067872 17.5171526,28.2918753 20.1871424,26.0635156 C22.8183241,23.8806326 25.8065394,22.1676759 29.0741722,20.9852809 C32.3728514,19.8104654 35.8112393,19.1965296 39.2884353,19.1965296 M39.455248,14.1446001 C22.8190549,14.1446001 7.24440167,26.0618704 5.42924958,43.4550709 C3.39530683,63.0243998 2.77945165,65.1688754 0,69.3153891 L32.2756732,73.7072118 C34.1880656,73.9050417 36.0680446,74 37.8994034,74 C54.5518032,74 67.735966,65.9127157 70.4586941,50.8618206 C73.4812465,34.1491547 63.7734241,16.5502111 43.1503791,14.3424299 C41.9186688,14.2158188 40.678855,14.1446001 39.455248,14.1446001 Z" id="形状" fill="#FFFFFF"></path>
                    <path d="M25.684905,41.2797168 C26.158574,41.2797168 26.6459725,41.3199388 27.1196415,41.4003829 C29.2683139,41.7690848 31.1423955,42.9355235 32.3986481,44.6851815 C33.6480358,46.4281359 34.1285696,48.5464959 33.7510074,50.6447448 C33.4146337,52.5016616 32.4123776,54.1909866 30.9295877,55.3909437 C29.4605274,56.5841971 27.6070401,57.2411568 25.7123641,57.2411568 C25.2386951,57.2411568 24.7512966,57.2009348 24.2776276,57.1204907 L16.2252548,55.7328309 L17.6462618,47.8761288 C17.9826354,46.019212 18.9848915,44.329887 20.4676814,43.1299299 C21.9367417,41.9366766 23.7902291,41.2797168 25.684905,41.2797168 M25.7677314,36.4473686 C19.5196449,36.4473686 13.9778639,40.820714 12.8601938,47.0358668 L10.5782839,59.655659 L23.5013448,61.8840187 C24.269743,62.0204489 25.0381412,62.0810845 25.7987778,62.0810845 C32.0468643,62.0810845 37.5886453,57.7077391 38.7063154,51.4925862 C39.9636943,44.5270673 35.1980731,37.8798855 28.0574028,36.6520139 C27.2890046,36.5155837 26.5206064,36.4473686 25.7677314,36.4473686 L25.7677314,36.4473686 Z" id="形状" fill="#FFFFFF"></path>
                    <path d="M61.7536624,31.92288 C59.6857784,31.92288 58.0048668,33.5046101 58.0048668,35.4504796 C58.0048668,37.396349 59.6857784,38.9780792 61.7536624,38.9780792 C63.8215465,38.9780792 65.5024581,37.396349 65.5024581,35.4504796 C65.5024581,33.5046101 63.8336394,31.92288 61.7536624,31.92288 Z M47.2494511,34.8435807 C45.1815671,34.8435807 43.5006555,36.4253109 43.5006555,38.3711803 C43.5006555,40.3170498 45.1815671,41.8987799 47.2494511,41.8987799 C49.3173352,41.8987799 50.9982468,40.3170498 50.9982468,38.3711803 C50.9982468,36.4253109 49.3173352,34.8435807 47.2494511,34.8435807 Z" id="形状" fill="#FFFFFF"></path>
                    <path d="M56.7209846,43.8903931 C56.4803751,43.4356258 56.2708119,42.905064 56.2009575,42.3290255 C56.1078183,41.5938183 56.2552887,40.9116674 56.4415671,40.3659467 L60.1748958,41.6089773 L56.7209846,43.8903931 Z" id="路径" fill="#EE3349"></path>
                    <path d="M55.4868905,38.054213 C55.4868905,38.054213 53.9656173,40.0172918 54.2760812,42.5564091 C54.5477371,44.7923482 56.2242423,46.505305 56.2242423,46.505305 L64.5136291,41.0556771 L55.4868905,38.054213 Z" id="路径" fill="#FFFFFF"></path>
                    <path d="M42.7901146,5.38364211 C45.4625241,5.38364211 47.6384539,7.53245097 47.6384539,10.1720741 C47.6384539,12.8116972 45.4625241,14.9605061 42.7901146,14.9605061 C41.6316618,14.9605061 40.5467616,14.571446 39.664131,13.8352246 L37.4943306,12.021606 L35.4900234,14.0088052 C34.7544978,14.7390411 33.7676677,15.1460578 32.7256732,15.1460578 C32.3088753,15.1460578 31.8982069,15.0802169 31.5059266,14.9545206 L29.2503149,14.2242847 L27.9631452,16.1695852 C27.4727948,16.9117921 26.6453285,17.3547221 25.7565685,17.3547221 C24.3039055,17.3547221 23.1209352,16.1815563 23.1209352,14.7450267 C23.1209352,13.3084971 24.3039055,12.1353312 25.7565685,12.1353312 C25.8056035,12.1353312 25.8607679,12.1353312 25.9159324,12.1413168 L28.2818729,12.2789842 L29.0173985,10.082291 C29.5445251,8.50210845 31.0339644,7.43668233 32.7195438,7.43668233 C33.4611987,7.43668233 34.1783361,7.64019069 34.7974035,8.02925079 L37.2001203,9.53162133 L38.9040879,7.29901491 C39.8357536,6.07796475 41.2516403,5.38364211 42.7901146,5.38364211 M44.7634667,0 C41.4803107,0 38.5697114,1.55378822 36.7379742,3.94889592 C35.371933,3.09241753 33.749759,2.59975297 32.011161,2.59975297 C28.0993156,2.59975297 24.7851132,5.10097304 23.628635,8.56478385 C23.4811647,8.5572044 23.3336943,8.54962494 23.186224,8.54962494 C19.2045241,8.54962494 15.9679377,11.7254165 15.9679377,15.6439946 C15.9679377,19.5625727 19.1967625,22.7383642 23.186224,22.7383642 C25.7242665,22.7383642 27.9518452,21.4498569 29.2402705,19.501937 C30.1095695,19.7823769 31.0409612,19.933966 32.0033994,19.933966 C34.4560644,19.933966 36.6758814,18.9486368 38.2747707,17.3645308 C40.0211302,18.8197861 42.2797553,19.6990029 44.7557051,19.6990029 C50.2897245,19.6990029 54.7759282,15.2877602 54.7759282,9.8457117 C54.7759282,4.4036632 50.2974861,0 44.7634667,0 L44.7634667,0 Z" id="形状" fill="#FFFFFF"></path>
                </g>
            </g>
        </g>
    </g>
</svg>